<svg width="271" height="54" viewBox="0 0 271 54" fill="none" xmlns="http://www.w3.org/2000/svg">
<path d="M44.2347 36.1255C44.2339 42.8131 40.4355 46.8121 34.262 48.0889C32.6259 48.4261 29.7748 48.4566 27.8344 48.4581L13.0267 48.3544V53.9719L0 43.2082L13.0267 32.4407V38.0895L29.6581 38.2146C31.2309 38.242 31.8945 37.339 31.8945 36.3962C31.8945 34.6923 30.2691 34.1141 25.5805 31.8923C18.0386 28.3196 12.1267 25.7378 12.1267 17.4782C12.1267 11.0811 16.7519 6.62218 23.5402 5.73512C24.9223 5.55588 27.4477 5.49867 29.1097 5.5246C32.5153 5.58028 42.0159 5.73359 42.0159 5.73359V16.0526L26.3974 15.7971C25.0413 15.775 24.377 16.6483 24.377 17.5521C24.377 18.8717 25.4577 19.4193 29.8717 21.5001C39.1427 25.8705 44.2347 28.1625 44.2347 36.1255ZM68.6445 35.2849C68.6445 37.1994 67.0061 38.7607 63.8621 38.7607C60.6266 38.7607 59.0798 37.1895 59.0798 35.2849V5.65198H46.5138V36.2887C46.5138 43.0816 52.1107 49.4649 63.8614 49.4649C74.9957 49.4649 81.209 43.1335 81.209 36.2887V5.65198H68.6445V35.2849ZM120.394 35.4909C120.394 43.9877 114.696 48.545 106.253 48.545H85.1927V5.65351H105.54C114.623 5.65656 119.262 10.7394 119.262 17.3943C119.262 20.822 117.658 23.7112 114.485 25.8476C118.166 27.9032 120.394 30.9892 120.394 35.4909ZM97.6596 22.6892L103.482 22.6907C105.686 22.6907 106.698 21.0889 106.698 18.848C106.698 16.5186 105.659 15.0069 103.482 15.0069H97.6596V22.6892ZM107.635 34.9211C107.635 32.3583 106.449 30.8596 104.094 30.8596H97.6596V39.0033H104.094C106.501 39.001 107.635 37.384 107.635 34.9211Z" fill="#F2B700"/>
<path d="M162.493 5.65207H175.034V35.9059C175.034 42.8963 170.068 49.2697 159.587 49.2697C155.111 49.2697 151.634 47.9281 149.087 45.9221C146.583 47.9212 143.225 49.2697 139.016 49.2697C127.808 49.2697 123.227 42.9055 123.227 35.9059V5.65207H135.767V35.6305C135.767 36.8517 136.462 38.3939 139.284 38.3939C142.141 38.3939 142.865 36.9279 142.865 35.6305V5.65207H155.398V35.6305C155.398 36.8936 156.066 38.3939 158.935 38.3939C161.805 38.3939 162.493 36.9569 162.493 35.6305V5.65207ZM228.957 22.513V5.65359H216.522V23.7464C216.522 29.7323 220.615 34.282 227.49 36.1423V48.5489H240.193V36.1423C247.176 34.2408 251.041 29.7102 251.041 23.7464V17.1114C251.041 16.4791 251.356 16.1015 252.083 16.1015L257.66 16.1V21.5299L270.687 10.7624L257.66 -0.00512695V5.39274H249.019C241.697 5.39274 238.611 9.62896 238.611 15.7514V22.513C238.611 24.1285 237.513 26.0186 233.785 26.0186C230.057 26.0186 228.957 24.1285 228.957 22.513ZM213.425 17.8871V48.5505H200.925V36.1233H191.433V48.5505H178.936V17.8871C178.936 10.1865 185.246 4.40042 196.179 4.40042C206.998 4.40042 213.425 10.14 213.425 17.8871ZM200.928 26.2794L200.925 18.6216C200.925 16.582 199.508 15.1122 196.182 15.1122C192.837 15.1122 191.436 16.6011 191.436 18.6216V26.2794H200.928Z" fill="#008938"/>
<path d="M248.058 45.9168C248.058 45.5255 247.747 45.3104 247.339 45.302H246.207V47.5284H246.638V46.6986H247.156C247.436 46.6986 247.603 46.8336 247.603 47.0975V47.5284H248.034V46.9457C248.027 46.7062 247.89 46.5628 247.691 46.5071V46.4911C247.962 46.3553 248.058 46.1883 248.058 45.9168ZM247.22 46.3386H246.638V45.6689H247.22C247.428 45.6689 247.595 45.7726 247.595 46.003C247.595 46.2272 247.428 46.3386 247.22 46.3386ZM247.061 44.1686C245.8 44.1686 244.771 45.1983 244.771 46.4583C244.771 47.7183 245.8 48.748 247.061 48.748C248.322 48.748 249.35 47.7191 249.35 46.4583C249.35 45.1975 248.321 44.1686 247.061 44.1686ZM247.061 48.3491C246.024 48.3491 245.169 47.4956 245.169 46.4583C245.169 45.421 246.024 44.5675 247.061 44.5675C248.098 44.5675 248.951 45.4217 248.951 46.4583C248.951 47.4949 248.098 48.3491 247.061 48.3491Z" fill="#008938"/>
</svg>
