<svg width="32" height="78" viewBox="0 0 32 78" fill="none" xmlns="http://www.w3.org/2000/svg">
<g clip-path="url(#clip0_21565_21634)">
<path d="M10.8335 20L16.0069 14.8267L21.1802 20C21.7002 20.52 22.5402 20.52 23.0602 20C23.5802 19.48 23.5802 18.64 23.0602 18.12L16.9402 12C16.4202 11.48 15.5802 11.48 15.0602 12L8.9402 18.12C8.4202 18.64 8.4202 19.48 8.9402 20C9.4602 20.5067 10.3135 20.52 10.8335 20Z" fill="#AAAAAA"/>
<path d="M21.1665 58L15.9931 63.1733L10.8198 58C10.2998 57.48 9.4598 57.48 8.9398 58C8.4198 58.52 8.4198 59.36 8.9398 59.88L15.0598 66C15.5798 66.52 16.4198 66.52 16.9398 66L23.0598 59.88C23.5798 59.36 23.5798 58.52 23.0598 58C22.5398 57.4933 21.6865 57.48 21.1665 58Z" fill="#AAAAAA"/>
<path d="M26.6663 34.9533C26.613 29.1 21.8663 24.38 15.9997 24.38C10.133 24.38 5.38634 29.1 5.33301 34.9533V42.9533C5.33301 48.8467 10.1063 53.62 15.9997 53.62C21.893 53.62 26.6663 48.8467 26.6663 42.9533V34.9533ZM23.9997 34.9533H17.333V27.1667C21.0797 27.7933 23.9463 31.0333 23.9997 34.9533ZM14.6663 27.1667V34.9533H7.99967C8.05301 31.0333 10.9197 27.7933 14.6663 27.1667ZM23.9997 42.9533C23.9997 47.3667 20.413 50.9533 15.9997 50.9533C11.5863 50.9533 7.99967 47.3667 7.99967 42.9533V37.62H23.9997V42.9533Z" fill="#666666"/>
</g>
<defs>
<clipPath id="clip0_21565_21634">
<rect width="32" height="78" fill="white"/>
</clipPath>
</defs>
</svg>
