<svg width="93" height="120" viewBox="0 0 93 120" fill="none" xmlns="http://www.w3.org/2000/svg">
<path d="M40.9801 11.6575C17.9015 11.6575 0 24.5635 0 47.3278C0 59.3486 6.31549 68.7239 15.2173 73.769L48.3496 73.7705C50.4586 73.7705 51.3082 72.7442 51.3082 71.3855C51.3082 69.4574 49.5785 68.6891 44.419 66.1953C33.063 60.7064 27.4795 57.6019 27.4795 48.3899C27.4795 41.5039 32.22 36.1867 39.9211 34.9453C41.2685 34.7287 43.0987 34.6053 45.2745 34.6053H63.1841V46.2623L91.0514 23.1317L63.1841 0V11.6575H40.9801Z" fill="white"/>
<path d="M28.4459 108.343V120L0.579102 96.8683L28.4459 73.7699V85.3942H46.8574C48.2038 85.3942 49.9586 85.3242 51.1895 85.1866C59.2874 84.2803 65.1287 80.3813 65.1287 71.2821C65.1287 61.7592 58.6067 58.683 47.9064 53.5452C42.562 50.9793 41.2638 50.0659 41.2638 48.4482C41.2638 47.087 42.2033 46.2617 43.8461 46.2617H76.5605C99.3844 60.2448 94.371 84.4672 83.9485 96.1186C76.6856 104.238 64.9081 108.343 50.9654 108.343H28.4459Z" fill="#F2B700"/>
<path d="M81.6516 106.085C81.6516 105.754 81.3894 105.572 81.0452 105.565H80.0897V107.449H80.4539V106.747H80.891C81.1266 106.747 81.2683 106.861 81.2683 107.084V107.449H81.6315V106.956C81.625 106.753 81.5104 106.632 81.3421 106.585V106.571C81.5707 106.456 81.6516 106.314 81.6516 106.085ZM80.9447 106.443H80.4539V105.876H80.9447C81.1201 105.876 81.2612 105.963 81.2612 106.159C81.2612 106.348 81.1201 106.443 80.9447 106.443ZM80.8106 104.606C79.7466 104.606 78.8779 105.478 78.8779 106.544C78.8779 107.611 79.7466 108.482 80.8106 108.482C81.8747 108.482 82.7423 107.611 82.7423 106.544C82.7423 105.477 81.8737 104.606 80.8106 104.606ZM80.8106 108.144C79.9349 108.144 79.2145 107.422 79.2145 106.544C79.2145 105.666 79.9349 104.944 80.8106 104.944C81.6863 104.944 82.4057 105.667 82.4057 106.544C82.4057 107.421 81.6853 108.144 80.8106 108.144Z" fill="#F2B700"/>
</svg>
