<svg width="32" height="32" viewBox="0 0 32 32" fill="none" xmlns="http://www.w3.org/2000/svg">
<path d="M1.31057 16.1488C1.39108 24.1804 7.94968 30.6901 16 30.6901C24.0999 30.6901 30.6894 24.0999 30.6894 16C30.6894 8.09777 24.4184 1.63335 16.5909 1.32206C16.5097 1.93889 16.2617 2.51545 15.8684 3.00359C16.1625 3.64198 16.3163 4.33573 16.3163 5.03666C16.3163 7.72753 14.1265 9.91733 11.4357 9.91733C11.1517 9.91733 10.8706 9.89288 10.5945 9.84399C10.6434 10.1201 10.6679 10.4004 10.6679 10.6851C10.6679 13.376 8.47808 15.5651 5.78721 15.5651C5.09418 15.5651 4.40978 15.4155 3.77786 15.1287C3.13156 15.7829 2.24083 16.1819 1.31057 16.1488ZM16 32C7.17757 32 0 24.8224 0 16C0 15.8656 0.00862838 15.7326 0.0172553 15.6003C0.0222876 15.5284 0.0273183 15.4558 0.030194 15.3832C0.0373831 15.1869 0.132998 15.0036 0.28972 14.8857C0.44716 14.7671 0.649173 14.7254 0.839683 14.7714C1.02947 14.8174 1.18907 14.839 1.34076 14.839C2.03019 14.839 2.68009 14.4989 3.07836 13.9288C3.27606 13.647 3.65852 13.5658 3.95327 13.7426C4.51043 14.0784 5.1445 14.2552 5.78721 14.2552C7.75558 14.2552 9.3573 12.6535 9.3573 10.6851C9.3573 10.1402 9.23436 9.61251 8.98993 9.11646C8.86628 8.86485 8.91661 8.56218 9.11503 8.36448C9.31273 8.16606 9.61467 8.11574 9.867 8.2394C10.3638 8.48311 10.8914 8.60676 11.4357 8.60676C13.404 8.60676 15.0058 7.00503 15.0058 5.03666C15.0058 4.40474 14.8347 3.78001 14.5104 3.22932C14.3544 2.96477 14.404 2.62688 14.6283 2.41768C15.0683 2.00862 15.3099 1.45866 15.3099 0.869872C15.2991 0.790073 15.294 0.749097 15.2904 0.7074C15.2768 0.525517 15.3393 0.346506 15.4637 0.212789C15.5874 0.0790726 15.762 0.00287405 15.9439 0.00287405C15.9482 0.00143624 15.9741 0 16 0C24.8224 0 32 7.17757 32 16C32 24.8224 24.8224 32 16 32Z" fill="#00491E"/>
<path d="M9.3897 19.3702C9.3897 20.3379 8.60537 21.1222 7.63772 21.1222C6.67007 21.1222 5.88574 20.3379 5.88574 19.3702C5.88574 18.4026 6.67007 17.6182 7.63772 17.6182C8.60537 17.6182 9.3897 18.4026 9.3897 19.3702Z" fill="#00491E"/>
<path d="M16.4776 24.3249C16.4776 25.2926 15.6933 26.0769 14.7256 26.0769C13.758 26.0769 12.9736 25.2926 12.9736 24.3249C12.9736 23.3573 13.758 22.5729 14.7256 22.5729C15.6933 22.5729 16.4776 23.3573 16.4776 24.3249Z" fill="#00491E"/>
<path d="M19.3204 15.3234C19.3204 16.2911 18.536 17.0754 17.5684 17.0754C16.6007 17.0754 15.8164 16.2911 15.8164 15.3234C15.8164 14.3558 16.6007 13.5715 17.5684 13.5715C18.536 13.5715 19.3204 14.3558 19.3204 15.3234Z" fill="#00491E"/>
<path d="M21.4991 7.01577C21.4991 7.98342 20.7147 8.76775 19.7471 8.76775C18.7794 8.76775 17.9951 7.98342 17.9951 7.01577C17.9951 6.04812 18.7794 5.26379 19.7471 5.26379C20.7147 5.26379 21.4991 6.04812 21.4991 7.01577Z" fill="#00491E"/>
<path d="M27.1172 13.3889C27.1172 14.3566 26.3329 15.1409 25.3653 15.1409C24.3976 15.1409 23.6133 14.3566 23.6133 13.3889C23.6133 12.4213 24.3976 11.637 25.3653 11.637C26.3329 11.637 27.1172 12.4213 27.1172 13.3889Z" fill="#00491E"/>
<path d="M26.5772 21.0495C26.5772 22.0172 25.7929 22.8015 24.8252 22.8015C23.8576 22.8015 23.0732 22.0172 23.0732 21.0495C23.0732 20.0819 23.8576 19.2975 24.8252 19.2975C25.7929 19.2975 26.5772 20.0819 26.5772 21.0495Z" fill="#00491E"/>
<path d="M26.0704 31.9878H6.55922C6.19761 31.9878 5.9043 31.6945 5.9043 31.3329C5.9043 30.9712 6.19761 30.6779 6.55922 30.6779H26.0704C26.432 30.6779 26.7253 30.9705 26.7253 31.3329C26.7253 31.6952 26.432 31.9878 26.0704 31.9878Z" fill="#00491E"/>
</svg>
