<svg width="32" height="32" viewBox="0 0 32 32" fill="none" xmlns="http://www.w3.org/2000/svg">
<path d="M17.0604 10.2834V10.2794H17.0744L17.0604 10.2834ZM3.98427 16.0864C4.03287 16.0312 4.08217 15.9753 4.14076 15.9187C4.76594 15.3155 5.30722 15.2742 5.99298 15.2222C6.73201 15.1663 7.65278 15.0971 8.58423 14.1963C9.51634 13.2968 9.58891 12.4073 9.64684 11.6929C9.70077 11.0304 9.74274 10.5071 10.3686 9.90323C10.9931 9.30002 11.5344 9.25875 12.2201 9.20748C12.9598 9.15155 13.8799 9.08165 14.812 8.18149C15.7442 7.28068 15.8167 6.39185 15.8747 5.67679C15.9286 5.01433 15.9712 4.49101 16.5964 3.88714C17.2222 3.28326 17.7642 3.24132 18.45 3.19006C19.0712 3.14212 19.8202 3.08552 20.5965 2.53558L22.3315 4.21138C21.3468 4.35785 20.0272 4.74268 18.7549 5.97173C17.123 7.54766 16.9286 9.20015 16.8494 10.1482C15.8673 10.2248 14.1576 10.4119 12.5264 11.9878C11.3306 13.1423 10.9078 14.3347 10.7361 15.2635C10.8972 15.2981 11.047 15.3401 11.1928 15.3854C11.3506 14.5138 11.7401 13.39 12.8586 12.3094C14.4346 10.7867 16.1057 10.6602 17.0211 10.591L17.0877 10.5857L17.2915 10.4878L17.3088 10.298C17.3793 9.43052 17.5105 7.81597 19.0871 6.29264C20.4154 5.01032 21.8082 4.71871 22.7517 4.61751L23.9301 5.75535C23.703 5.84323 23.4521 5.86454 23.0845 5.8925C22.2563 5.95575 21.1211 6.04164 19.9746 7.14951C18.8275 8.25739 18.7382 9.35395 18.673 10.1542C18.6231 10.7674 18.6004 11.0477 18.1896 11.4439C17.7795 11.84 17.4899 11.862 16.8554 11.9099C16.0271 11.9725 14.8926 12.0584 13.7461 13.1663C12.6875 14.1889 12.5311 15.1983 12.4618 15.9773C12.7754 16.1783 13.0364 16.3827 13.2461 16.5512C13.5133 16.7664 13.7088 16.8741 13.8327 16.8741C13.9565 16.8741 14.1523 16.7667 14.4199 16.5518C14.6529 16.3641 14.9459 16.1317 15.3088 15.91C15.3587 15.5931 15.4552 15.3707 15.7415 15.0938C16.1516 14.6976 16.4413 14.6763 17.0758 14.6277C17.904 14.5651 19.0385 14.4792 20.1857 13.372C21.3322 12.2641 21.4214 11.1682 21.4866 10.368C21.5366 9.75409 21.5592 9.47446 21.97 9.07765C22.3808 8.68083 22.6704 8.65887 23.3062 8.61026C24.0279 8.55567 24.9827 8.48177 25.9754 7.73075L28.1845 9.86528C27.7378 10.1323 27.305 10.1656 26.7917 10.2042C26.052 10.2601 25.1318 10.33 24.1991 11.2308C23.2669 12.131 23.195 13.0205 23.1364 13.7349C23.0825 14.3973 23.0399 14.9206 22.4147 15.5252C22.0419 15.8847 21.699 16.0432 21.3375 16.1244C21.5525 16.2755 21.7383 16.424 21.8967 16.5512C22.1639 16.7664 22.3595 16.8741 22.4833 16.8741H22.5259C22.7629 16.7376 23.004 16.5618 23.2456 16.3281C24.1784 15.428 24.251 14.5385 24.3089 13.8241C24.3629 13.1616 24.4055 12.6383 25.0306 12.0338C25.6565 11.4299 26.1984 11.3886 26.8842 11.3367C27.6239 11.2801 28.5447 11.2109 29.4768 10.31C29.7065 10.0883 29.7065 9.72879 29.4768 9.50708L21.0426 1.35979C20.8222 1.14673 20.4313 1.14673 20.211 1.35979C19.5858 1.96366 19.0439 2.00494 18.3581 2.05687C17.6184 2.11346 16.6976 2.18271 15.7655 3.08353C14.8327 3.98434 14.7608 4.87317 14.7022 5.58823C14.6483 6.25069 14.6057 6.77401 13.9805 7.37788C13.3553 7.98176 12.814 8.02304 12.1282 8.0743C11.3885 8.13023 10.4684 8.20014 9.537 9.10029C8.60489 10.0004 8.53231 10.8893 8.47439 11.6043C8.42046 12.2661 8.37786 12.7894 7.75268 13.3933C7.12816 13.9972 6.58687 14.0385 5.9011 14.0897C5.16141 14.1457 4.24128 14.2149 3.30917 15.1157C3.16669 15.2535 3.0502 15.3907 2.94434 15.5278C3.3518 15.693 3.69798 15.8894 3.98427 16.0864Z" fill="#00491E"/>
<path d="M29.5911 29.1366C29.0265 28.6712 28.3248 28.0913 27.0059 28.0913C25.6869 28.0913 24.9859 28.6712 24.4213 29.1366C23.898 29.568 23.4845 29.9089 22.6003 29.9089C21.7161 29.9089 21.304 29.568 20.7814 29.1366C20.2175 28.6712 19.5157 28.0913 18.1981 28.0913C16.8805 28.0913 16.1774 28.6712 15.6135 29.1366C15.0909 29.568 14.6774 29.9089 13.7932 29.9089C12.9091 29.9089 12.4969 29.568 11.9743 29.1366C11.4104 28.6712 10.7086 28.0913 9.39103 28.0913C8.07342 28.0913 7.37167 28.6712 6.80775 29.1366C6.2851 29.568 5.87296 29.9089 4.98946 29.9089C4.10595 29.9089 3.69381 29.568 3.17117 29.1366C2.69779 28.7451 2.12724 28.2744 1.17582 28.1333V25.1485C1.39953 25.2411 1.5926 25.3975 1.87157 25.6279C2.5034 26.1492 3.36825 26.8636 4.98946 26.8636C6.61066 26.8636 7.47552 26.1492 8.10735 25.6279C8.59072 25.2291 8.81179 25.0466 9.39103 25.0466C9.97026 25.0466 10.1913 25.2291 10.6753 25.6279C11.3072 26.1492 12.172 26.8636 13.7932 26.8636C15.4144 26.8636 16.2806 26.1499 16.9125 25.6285C17.3965 25.2291 17.6175 25.0466 18.1981 25.0466C18.7787 25.0466 18.9984 25.2291 19.4824 25.6279C20.1136 26.1492 20.9791 26.8636 22.6003 26.8636C24.2215 26.8636 25.0877 26.1499 25.7196 25.6285C26.2042 25.2291 26.4253 25.0466 27.0059 25.0466C27.5864 25.0466 27.8082 25.2291 28.2929 25.6285C28.8435 26.0833 29.5725 26.6832 30.8242 26.8296V29.8483C30.3122 29.7312 29.9826 29.4595 29.5911 29.1366ZM2.40687 18.4786C2.9708 18.944 3.67186 19.5232 4.98946 19.5232C6.30706 19.5232 7.00816 18.944 7.57208 18.4786C8.09473 18.0465 8.50752 17.7056 9.39103 17.7056C10.2745 17.7056 10.6873 18.0465 11.21 18.4786C11.7739 18.944 12.4756 19.5232 13.7932 19.5232C15.1108 19.5232 15.8132 18.944 16.3772 18.4786C16.9005 18.0465 17.3139 17.7056 18.1981 17.7056C19.0823 17.7056 19.4944 18.0465 20.017 18.4786C20.581 18.944 21.2827 19.5232 22.6003 19.5232C23.9179 19.5232 24.621 18.944 25.1849 18.4786C25.7082 18.0465 26.1217 17.7056 27.0059 17.7056C27.89 17.7056 28.3042 18.0465 28.8268 18.4786C29.3009 18.8694 29.8721 19.3408 30.8242 19.4819V21.8528C30.0206 21.2836 28.8062 20.6537 27.0059 20.6537C24.6982 20.6537 23.352 21.6897 22.601 22.3056C21.8513 21.6897 20.5051 20.6537 18.1981 20.6537C15.8911 20.6537 14.5436 21.6891 13.7939 22.3056C13.0435 21.6897 11.698 20.6537 9.39103 20.6537C7.08406 20.6537 5.74314 21.6857 4.98946 22.3043C4.30636 21.7437 3.12127 20.8448 1.17582 20.6864V17.7669C1.68649 17.8834 2.01605 18.1557 2.40687 18.4786ZM22.6516 22.5453L22.6549 22.5426L22.6636 22.5526L22.6516 22.5453ZM13.8452 22.5466L13.8485 22.5433L13.8565 22.5526L13.8452 22.5466ZM13.8565 22.8489L14.0096 22.725C14.6934 22.1604 15.9657 21.1085 18.1981 21.1085C20.4305 21.1085 21.7008 22.1598 22.3986 22.7363L22.4499 22.7783L22.6656 22.8475L22.8167 22.725C23.5018 22.1604 24.7768 21.1085 27.0059 21.1085C28.8874 21.1085 30.0832 21.8548 30.8242 22.4288V24.036C30.5992 23.9434 30.4061 23.787 30.1258 23.5553C29.494 23.034 28.6284 22.3202 27.0059 22.3202C25.3833 22.3202 24.5185 23.034 23.8866 23.5553C23.4026 23.9554 23.1809 24.1378 22.6003 24.1378C22.0197 24.1378 21.8001 23.9554 21.316 23.5559C20.6842 23.0346 19.8193 22.3202 18.1981 22.3202C16.5769 22.3202 15.7107 23.034 15.0789 23.5559C14.5948 23.9554 14.3738 24.1378 13.7932 24.1378C13.2127 24.1378 12.9929 23.9554 12.5089 23.5559C11.8777 23.0346 11.0122 22.3202 9.39103 22.3202C7.76982 22.3202 6.90497 23.0346 6.27313 23.5559C5.78977 23.9554 5.5687 24.1378 4.98946 24.1378C4.41022 24.1378 4.18919 23.9554 3.70583 23.5559C3.15588 23.1012 2.42751 22.5013 1.17582 22.3542V21.1424C3.03938 21.3076 4.15389 22.2124 4.77441 22.725L4.98946 22.9008L5.20386 22.725C5.88896 22.1598 7.16395 21.1085 9.39103 21.1085C11.6181 21.1085 12.8938 22.1598 13.6042 22.7463L13.8565 22.8489ZM31.4121 18.3874C30.5273 18.3874 30.1144 18.0465 29.5911 17.6151C29.0265 17.1497 28.3248 16.5698 27.0059 16.5698C25.6869 16.5698 24.9859 17.1497 24.4213 17.6151C23.898 18.0465 23.4845 18.3874 22.6003 18.3874C21.7161 18.3874 21.304 18.0465 20.7814 17.6151C20.2175 17.1497 19.5157 16.5698 18.1981 16.5698C16.8805 16.5698 16.1774 17.1497 15.6135 17.6151C15.0909 18.0465 14.6774 18.3874 13.7932 18.3874C12.9091 18.3874 12.4969 18.0465 11.9743 17.6151C11.4104 17.1497 10.7086 16.5698 9.39103 16.5698C8.07342 16.5698 7.37167 17.1497 6.80775 17.6151C6.2851 18.0465 5.87296 18.3874 4.98946 18.3874C4.10595 18.3874 3.69381 18.0465 3.17117 17.6151C2.60724 17.1497 1.90553 16.5698 0.587932 16.5698C0.263026 16.5698 0 16.8241 0 17.1377V28.6592C0 28.9728 0.263026 29.2272 0.587932 29.2272C1.47144 29.2272 1.88423 29.568 2.40687 30.0001C2.9708 30.4655 3.67186 31.0448 4.98946 31.0448C6.30706 31.0448 7.00816 30.4655 7.57208 30.0001C8.09473 29.568 8.50752 29.2272 9.39103 29.2272C10.2745 29.2272 10.6873 29.568 11.21 30.0001C11.7739 30.4655 12.4756 31.0448 13.7932 31.0448C15.1108 31.0448 15.8132 30.4655 16.3772 30.0001C16.9005 29.568 17.3139 29.2272 18.1981 29.2272C19.0823 29.2272 19.4944 29.568 20.017 30.0001C20.581 30.4655 21.2827 31.0448 22.6003 31.0448C23.9179 31.0448 24.621 30.4655 25.1849 30.0001C25.7082 29.568 26.1217 29.2272 27.0059 29.2272C27.89 29.2272 28.3042 29.568 28.8268 30.0001C29.3914 30.4655 30.0938 31.0448 31.4121 31.0448C31.737 31.0448 32 30.7904 32 30.4768V18.9553C32 18.6417 31.737 18.3874 31.4121 18.3874Z" fill="#00491E"/>
</svg>
