<svg width="32" height="32" viewBox="0 0 32 32" fill="none" xmlns="http://www.w3.org/2000/svg">
<g clip-path="url(#clip0_25448_1258)">
<path d="M17.4939 18.4298L17.4778 18.4211H16.7559L16.7532 18.4232V18.4211H15.7454C15.6362 18.4211 15.5612 18.4901 15.5612 18.5852C15.5612 18.697 15.6228 18.7493 15.9275 18.8966L15.9898 18.9267C16.4244 19.1357 16.8349 19.3326 16.8349 19.8375C16.8349 20.26 16.5865 20.5018 16.0963 20.5574C16.036 20.5641 15.9443 20.5688 15.8633 20.5688H14.8434V19.96H14.84L13.3359 21.2143L14.8434 22.4733V21.8605H16.0762C17.7691 21.8605 18.3705 20.8085 18.3705 19.9071C18.3705 19.6098 18.2848 18.8705 17.4939 18.4298Z" fill="#00491E"/>
<path d="M14.8425 19.96H15.9401C16.0546 19.96 16.1015 19.9044 16.1015 19.8308C16.1015 19.7256 16.0071 19.6841 15.7258 19.5489C15.1479 19.2703 14.803 19.0774 14.803 18.5812C14.803 18.2068 15.0615 17.9182 15.4807 17.8506C15.5544 17.8392 15.6535 17.8325 15.772 17.8325H16.7531V18.4211H16.7558L18.2183 17.209L16.7531 15.9949V16.5856H15.5537C14.2827 16.5856 13.3057 17.2867 13.3057 18.5236C13.3057 19.1765 13.6499 19.6861 14.1347 19.96H14.8392L14.8425 19.9573V19.96Z" fill="#00491E"/>
<path d="M15.8385 23.4864C13.4933 23.4864 11.5861 21.5785 11.5861 19.234C11.5861 16.8895 13.4933 14.981 15.8385 14.981C18.1836 14.981 20.0909 16.8889 20.0909 19.234C20.0909 21.5792 18.1836 23.4864 15.8385 23.4864ZM15.8385 13.7589C12.8196 13.7589 10.3633 16.2152 10.3633 19.234C10.3633 22.2529 12.8196 24.7086 15.8385 24.7086C18.8573 24.7086 21.313 22.2522 21.313 19.234C21.313 16.2159 18.8573 13.7589 15.8385 13.7589Z" fill="#00491E"/>
<path d="M24.4145 6.414H12.8915C12.5346 6.414 12.2453 6.7033 12.2453 7.06023C12.2453 7.41716 12.5346 7.70646 12.8915 7.70646H23.0618L21.8309 30.7082H9.80437L8.61505 7.70646H10.7479C11.1062 7.70646 11.3962 7.41515 11.3942 7.05755C11.3928 6.70129 11.1035 6.414 10.7479 6.414H7.26098V5.12222H24.4145V6.414ZM24.8049 3.86056L16.6082 3.85923L16.2707 -6.10352e-05L15.0512 0.106416L15.38 3.85856L6.87124 3.85722C6.38975 3.85655 6 4.24696 6 4.72845V6.83522C6 7.31671 6.38975 7.70646 6.87124 7.70646H7.26098L8.51192 31.2425C8.53469 31.6671 8.88559 31.9999 9.31083 31.9999H22.3506C22.7758 31.9999 23.126 31.6678 23.1488 31.2432L24.4145 7.70646H24.8049C25.2857 7.70646 25.6761 7.31671 25.6761 6.83522V4.7318C25.6761 4.25098 25.2857 3.86056 24.8049 3.86056Z" fill="#00491E"/>
<path d="M10.0708 11.869L10.1049 12.8441C10.117 13.1863 10.3982 13.4562 10.7384 13.4562C10.7465 13.4562 10.7538 13.4562 10.7612 13.4555C11.1121 13.4434 11.3853 13.1494 11.3733 12.7992L11.3391 11.8248C11.3291 11.5275 11.4369 11.2469 11.6431 11.0333C11.8494 10.8203 12.126 10.7025 12.4226 10.7025H20.1526V11.2844C20.1526 11.3567 20.2376 11.3963 20.2926 11.35L21.7852 10.0998C21.8254 10.0656 21.8254 10.0034 21.7852 9.9692L20.2926 8.71893C20.2376 8.67272 20.1526 8.71156 20.1526 8.78389V9.43346H12.4226C11.7784 9.43346 11.1777 9.68861 10.7304 10.152C10.2824 10.6154 10.0487 11.2248 10.0708 11.869Z" fill="#00491E"/>
<path d="M20.4648 25.2892C20.1146 25.2765 19.8146 25.5356 19.7938 25.8852L19.7456 26.6875C19.7235 27.0692 19.4061 27.3685 19.0231 27.3685H12.4831V26.7384C12.4831 26.666 12.398 26.6265 12.3425 26.6727L10.8504 27.923C10.8103 27.9572 10.8103 28.0194 10.8504 28.0536L12.3425 29.3039C12.398 29.3507 12.4831 29.3112 12.4831 29.2389V28.6375H19.0231C20.0764 28.6375 20.951 27.8145 21.0133 26.7625L21.0608 25.9602C21.0816 25.6106 20.8151 25.31 20.4648 25.2892Z" fill="#00491E"/>
</g>
<defs>
<clipPath id="clip0_25448_1258">
<rect width="32" height="32" fill="white"/>
</clipPath>
</defs>
</svg>
