<svg width="32" height="32" viewBox="0 0 32 32" fill="none" xmlns="http://www.w3.org/2000/svg">
<g clip-path="url(#clip0_25449_1274)">
<path d="M5.55606 21.1162L4.36681 21.9457C4.10268 22.1205 4.03035 22.4759 4.20519 22.74C4.31525 22.9067 4.49763 22.9972 4.68315 22.9972C4.79195 22.9972 4.90138 22.9664 4.99886 22.9022L6.18811 22.0721C6.45224 21.8979 6.52457 21.5419 6.35036 21.2778C6.17553 21.0137 5.8202 20.942 5.55606 21.1162ZM19.1541 21.1036L17.7058 21.9727C17.4347 22.1356 17.3467 22.4872 17.5095 22.7589C17.6171 22.9381 17.8064 23.0368 18.0013 23.0368C18.102 23.0368 18.2038 23.0104 18.2957 22.9551L19.744 22.0859C20.0151 21.9231 20.1031 21.5709 19.9402 21.2998C19.7767 21.0275 19.4245 20.9401 19.1541 21.1036ZM11.3306 21.13C11.074 21.3155 11.0162 21.6734 11.2017 21.93L12.0388 23.0897C12.1507 23.245 12.3262 23.3274 12.5041 23.3274C12.6199 23.3274 12.7375 23.2922 12.8393 23.2192C13.0959 23.0337 13.1532 22.6752 12.9683 22.4186L12.1312 21.2596C11.9457 21.0017 11.5872 20.9445 11.3306 21.13ZM26.1116 23.1708C26.2085 23.2337 26.3166 23.2639 26.4242 23.2639C26.6116 23.2639 26.7946 23.172 26.9047 23.0029C27.0776 22.7381 27.0021 22.3828 26.7374 22.2098L25.089 21.1137C24.8236 20.942 24.4689 21.0162 24.296 21.2816C24.123 21.5463 24.1985 21.9017 24.4633 22.0746L26.1116 23.1708ZM7.13586 21.7444C7.13586 22.0614 7.39245 22.3174 7.70878 22.3174H9.86402C10.181 22.3174 10.4376 22.0614 10.4376 21.7444C10.4376 21.4275 10.181 21.1715 9.86402 21.1715H7.70878C7.39245 21.1715 7.13586 21.4281 7.13586 21.7444ZM13.5695 21.7444C13.5695 22.0614 13.8261 22.3174 14.1424 22.3174H16.2234C16.5398 22.3174 16.7964 22.0614 16.7964 21.7444C16.7964 21.4275 16.5398 21.1715 16.2234 21.1715H14.1424C13.8261 21.1715 13.5695 21.4281 13.5695 21.7444ZM21.4358 21.1715C21.1194 21.1715 20.8628 21.4281 20.8628 21.7444C20.8628 22.0608 21.1194 22.3174 21.4358 22.3174H22.9369C23.2539 22.3174 23.5105 22.0614 23.5105 21.7444C23.5105 21.4275 23.2539 21.1715 22.9369 21.1715H21.4358ZM30.5567 21.1715H27.9436C27.6273 21.1715 27.3707 21.4281 27.3707 21.7444C27.3707 22.0608 27.6273 22.3174 27.9436 22.3174H29.0134C29.0052 22.3557 28.9901 22.3916 28.9901 22.4325C28.9901 23.4551 28.1581 24.2871 27.1348 24.2871H2.32981C2.21032 24.2871 2.11284 24.1902 2.11284 24.0707V22.374C2.11284 22.3539 2.10404 22.3369 2.10152 22.3174H3.07631C3.39265 22.3174 3.64924 22.0614 3.64924 21.7444C3.64924 21.4275 3.39265 21.1715 3.07631 21.1715H0.579586C0.262621 21.1715 0.00665905 21.4281 0.00665905 21.7444C0.00665905 22.0608 0.262621 22.3174 0.579586 22.3174H0.978308C0.976421 22.3369 0.966988 22.3539 0.966988 22.374V24.0707C0.966988 24.8216 1.57828 25.4336 2.32981 25.4336H27.1348C28.7901 25.4336 30.1359 24.0871 30.1359 22.4325C30.1359 22.3916 30.1209 22.3557 30.1133 22.3174H30.5567C30.8736 22.3174 31.1302 22.0614 31.1302 21.7444C31.1302 21.4275 30.8736 21.1715 30.5567 21.1715ZM31.6981 14.2247C31.5774 14.0939 31.4334 14.0058 31.2818 13.9392V13.6625C31.2818 9.87838 27.8763 6.79993 23.691 6.79993H2.27132C1.48394 6.79993 0.843723 7.44014 0.843723 8.22752V12.7424C0.843723 13.0587 1.10031 13.3153 1.41728 13.3153C1.73424 13.3153 1.99021 13.0587 1.99021 12.7424V8.22752C1.99021 8.07219 2.11599 7.94641 2.27132 7.94641H23.691C27.2449 7.94641 30.1359 10.5104 30.1359 13.6625V13.9989C29.9253 14.0901 29.746 14.1945 29.585 14.2907C29.2335 14.5002 28.9568 14.6662 28.358 14.6662C27.7593 14.6662 27.4858 14.5008 27.138 14.292C26.7361 14.0499 26.2355 13.7493 25.3091 13.7493C24.3828 13.7493 23.8822 14.0499 23.4803 14.292C23.1325 14.5008 22.8577 14.6662 22.2596 14.6662C21.6615 14.6662 21.3867 14.5008 21.0389 14.292C20.6364 14.0499 20.1358 13.7493 19.2095 13.7493C18.2831 13.7493 17.7825 14.0499 17.38 14.292C17.0322 14.5008 16.758 14.6662 16.1593 14.6662C15.5606 14.6662 15.2864 14.5008 14.9386 14.292C14.5361 14.0499 14.0355 13.7493 13.1091 13.7493C12.1828 13.7493 11.6822 14.0499 11.2797 14.292C10.9325 14.5008 10.6577 14.6662 10.0596 14.6662C9.46152 14.6662 9.18607 14.5008 8.83829 14.292C8.43579 14.0499 7.93519 13.7493 7.00819 13.7493C6.08119 13.7493 5.57933 14.0499 5.17684 14.292C4.82843 14.5008 4.5536 14.6662 3.95426 14.6662C3.35492 14.6662 3.07946 14.5008 2.73105 14.292C2.32855 14.0499 1.82795 13.7493 0.900324 13.7493C0.756307 13.7493 0.626754 13.7587 0.510407 13.775C0.0657755 13.8367 -0.151194 14.3379 0.117974 14.6907C0.245012 14.8574 0.454435 14.9492 0.663858 14.9146C0.732408 14.9033 0.81165 14.8951 0.900324 14.8951C1.49967 14.8951 1.77512 15.0605 2.1229 15.2699C2.52603 15.5114 3.02663 15.812 3.95426 15.812C4.88188 15.812 5.38249 15.5114 5.78498 15.2699C6.13339 15.0605 6.40822 14.8951 7.00819 14.8951C7.60816 14.8951 7.88173 15.0605 8.22951 15.2699C8.63201 15.5114 9.13261 15.812 10.0596 15.812C10.9866 15.812 11.4866 15.5114 11.8884 15.2699C12.2362 15.0605 12.5111 14.8951 13.1091 14.8951C13.7072 14.8951 13.982 15.0605 14.3298 15.2699C14.7323 15.5114 15.2329 15.812 16.1593 15.812C17.0857 15.812 17.5869 15.5114 17.9888 15.2699C18.3365 15.0605 18.6114 14.8951 19.2095 14.8951C19.8075 14.8951 20.0824 15.0605 20.4301 15.2699C20.8326 15.5114 21.3326 15.812 22.2596 15.812C23.1866 15.812 23.6866 15.5114 24.0885 15.2699C24.4362 15.0605 24.7111 14.8951 25.3091 14.8951C25.9072 14.8951 26.1821 15.0605 26.5292 15.2699C26.9311 15.5114 27.4317 15.812 28.358 15.812C29.2844 15.812 29.7863 15.5121 30.19 15.2706C30.3963 15.1473 30.5743 15.041 30.8013 14.9743L30.834 15.0102V16.0039C30.834 16.4774 30.4353 16.8636 29.9435 16.8636L28.414 16.8441C28.0927 16.8453 27.8317 17.1019 27.8329 17.4183C27.8329 17.7346 28.0945 17.9906 28.4159 17.9906H28.4172L29.9448 18.01C31.078 18.01 32 17.1101 32 16.0039V15.0498C32 14.7492 31.9044 14.4467 31.6981 14.2247ZM25.9412 12.5795C26.306 12.5795 26.6015 12.2839 26.6015 11.9185C26.6015 11.5531 26.306 11.2582 25.9412 11.2582C25.5764 11.2582 25.2802 11.5538 25.2802 11.9185C25.2802 12.2833 25.5758 12.5795 25.9412 12.5795ZM22.8684 10.2708C23.2332 10.2708 23.5287 9.9746 23.5287 9.60984C23.5287 9.24508 23.2332 8.9495 22.8684 8.9495C22.5036 8.9495 22.2074 9.24508 22.2074 9.60984C22.2074 9.9746 22.5036 10.2708 22.8684 10.2708ZM19.688 12.5795C20.0528 12.5795 20.349 12.2839 20.349 11.9185C20.349 11.5531 20.0528 11.2582 19.688 11.2582C19.3233 11.2582 19.0271 11.5538 19.0271 11.9185C19.0271 12.2833 19.3233 12.5795 19.688 12.5795ZM17.2762 9.60984C17.2762 9.24508 16.9806 8.9495 16.6152 8.9495C16.2499 8.9495 15.9549 9.24508 15.9549 9.60984C15.9549 9.9746 16.2505 10.2708 16.6152 10.2708C16.98 10.2708 17.2762 9.9746 17.2762 9.60984ZM14.0959 11.9185C14.0959 11.5538 13.8003 11.2582 13.4355 11.2582C13.0708 11.2582 12.7746 11.5538 12.7746 11.9185C12.7746 12.2833 13.0701 12.5795 13.4355 12.5795C13.8009 12.5795 14.0959 12.2839 14.0959 11.9185ZM11.0231 9.60984C11.0231 9.24508 10.7275 8.9495 10.3627 8.9495C9.99798 8.9495 9.70176 9.24508 9.70176 9.60984C9.70176 9.9746 9.99798 10.2708 10.3627 10.2708C10.7275 10.2708 11.0231 9.9746 11.0231 9.60984ZM7.84337 11.9185C7.84337 11.5538 7.54716 11.2582 7.18239 11.2582C6.81763 11.2582 6.52142 11.5538 6.52142 11.9185C6.52142 12.2833 6.81763 12.5795 7.18239 12.5795C7.54716 12.5795 7.84337 12.2839 7.84337 11.9185ZM4.77057 9.60984C4.77057 9.24508 4.47499 8.9495 4.1096 8.9495C3.74421 8.9495 3.44925 9.24508 3.44925 9.60984C3.44925 9.9746 3.74483 10.2708 4.1096 10.2708C4.47436 10.2708 4.77057 9.9746 4.77057 9.60984ZM26.2431 16.8177H17.7328C17.4165 16.8177 17.1599 17.0742 17.1599 17.3906C17.1599 17.7069 17.4165 17.9635 17.7328 17.9635H26.2431C26.5594 17.9635 26.816 17.7069 26.816 17.3906C26.816 17.0742 26.5594 16.8177 26.2431 16.8177ZM15.5914 16.8177H7.1063C6.78933 16.8177 6.53274 17.0742 6.53274 17.3906C6.53274 17.7069 6.78933 17.9635 7.1063 17.9635H15.5914C15.9077 17.9635 16.1643 17.7069 16.1643 17.3906C16.1643 17.0742 15.9077 16.8177 15.5914 16.8177ZM4.96427 16.8177H0.606C0.289664 16.8177 0.0330728 17.0742 0.0330728 17.3906C0.0330728 17.7069 0.289664 17.9635 0.606 17.9635H4.96427C5.28061 17.9635 5.5372 17.7069 5.5372 17.3906C5.5372 17.0742 5.28061 16.8177 4.96427 16.8177ZM30.6529 19.0754H21.7609C21.4446 19.0754 21.188 19.332 21.188 19.6483C21.188 19.9647 21.4446 20.2213 21.7609 20.2213H30.6529C30.9692 20.2213 31.2258 19.9647 31.2258 19.6483C31.2258 19.332 30.9692 19.0754 30.6529 19.0754ZM19.6189 19.0754H11.1338C10.8174 19.0754 10.5608 19.332 10.5608 19.6483C10.5608 19.9647 10.8174 20.2213 11.1338 20.2213H19.6189C19.9358 20.2213 20.1924 19.9647 20.1924 19.6483C20.1924 19.332 19.9358 19.0754 19.6189 19.0754ZM9.56529 19.6483C9.56529 19.9647 9.3087 20.2213 8.99237 20.2213H0.621722C0.305386 20.2213 0.0487954 19.9647 0.0487954 19.6483C0.0487954 19.332 0.305386 19.0754 0.621722 19.0754H8.99237C9.3087 19.0754 9.56529 19.332 9.56529 19.6483Z" fill="#00491E"/>
</g>
<defs>
<clipPath id="clip0_25449_1274">
<rect width="32" height="32" fill="white"/>
</clipPath>
</defs>
</svg>
